<svg width="401" height="252" viewBox="0 0 401 252" fill="none" xmlns="http://www.w3.org/2000/svg">
<g clip-path="url(#clip0_13263_179696)">
<path d="M267.899 242.9C267.399 241.1 266.099 239.5 264.399 238.9C262.599 238.3 260.399 239.2 259.899 241C258.299 239.7 255.799 240.7 254.499 242.4C252.399 245.1 253.999 249.5 254.399 249.7C254.799 250 255.799 250 255.799 250L271.499 249.9C271.499 249.9 274.4 249.7 275.7 249.2C278.4 248.1 280.199 243.5 278.499 241.2C277.299 239.6 275 239.3 273.1 239.9C271.2 240.4 269.399 241.6 267.899 242.9Z" fill="#6CDD6C"/>
<path d="M255.499 250.5C255.099 250.5 254.399 250.4 253.999 250.1C253.399 249.6 251.799 244.9 253.999 242C254.899 240.8 256.299 240 257.699 239.8C258.399 239.7 258.999 239.8 259.599 240.1C259.899 239.5 260.499 239 261.099 238.6C262.099 238.1 263.399 237.9 264.499 238.3C266.099 238.8 267.399 240.1 268.099 241.9C269.599 240.7 271.299 239.7 272.899 239.2C274.799 238.6 277.399 238.8 278.799 240.7C279.599 241.8 279.799 243.4 279.299 245.1C278.699 247.1 277.299 248.9 275.799 249.5C274.399 250.1 271.599 250.3 271.399 250.3L255.699 250.4C255.699 250.5 255.599 250.5 255.499 250.5ZM258.099 240.9C257.999 240.9 257.899 240.9 257.799 240.9C256.799 241 255.599 241.7 254.799 242.7C252.999 245.1 254.299 249 254.599 249.4C254.699 249.5 255.199 249.5 255.599 249.5L271.299 249.4C271.299 249.4 274.099 249.2 275.299 248.7C276.499 248.2 277.699 246.7 278.199 245C278.599 243.6 278.499 242.3 277.899 241.5C276.799 240 274.599 239.9 273.099 240.4C271.499 240.9 269.699 242 268.099 243.4C267.999 243.5 267.799 243.6 267.599 243.5C267.399 243.5 267.299 243.3 267.199 243.2C266.599 241.4 265.499 240 263.999 239.6C263.199 239.3 262.199 239.4 261.399 239.8C260.699 240.1 260.299 240.7 260.099 241.3C259.999 241.5 259.899 241.6 259.799 241.6C259.599 241.6 259.499 241.6 259.299 241.5C259.099 241 258.599 240.9 258.099 240.9Z" fill="#50AA50"/>
<path d="M251.4 242.299C251 243.199 250.8 244.099 250.9 245.099C251 245.599 251.7 245.599 251.7 245.099C251.6 244.299 251.7 243.399 252.1 242.699C252.3 242.299 251.6 241.899 251.4 242.299Z" fill="#50AA50"/>
<path d="M249.1 242.9C248.9 243.8 248.8 244.7 249 245.5C249.1 246 249.9 245.8 249.8 245.3C249.6 244.5 249.7 243.8 249.9 243.1C250 242.7 249.2 242.4 249.1 242.9Z" fill="#50AA50"/>
<path d="M253.5 241.4C254 241.4 254 240.6 253.5 240.6C253 240.6 253 241.4 253.5 241.4Z" fill="#50AA50"/>
<path d="M255.699 245.1C255.699 245.3 255.699 245.6 255.699 245.8C255.699 246.3 256.499 246.3 256.499 245.8C256.499 245.6 256.499 245.3 256.499 245.1C256.499 244.6 255.699 244.6 255.699 245.1Z" fill="#50AA50"/>
<path d="M268.8 246.3C268.8 246.4 268.8 246.5 268.8 246.6C268.8 247.1 269.6 247.1 269.6 246.6C269.6 246.5 269.6 246.4 269.6 246.3C269.6 245.8 268.8 245.8 268.8 246.3Z" fill="#50AA50"/>
<path d="M267.4 245.4C267.5 245.5 267.5 245.5 267.6 245.6C268 246 268.5 245.4 268.1 245.1C268 245 268 245 267.9 244.9C267.6 244.5 267 245 267.4 245.4Z" fill="#50AA50"/>
<path d="M46.4 228.2H20C19.4 228.2 19 227.7 19 227.2C19 226.6 19.5 226.2 20 226.2H46.3C46.9 226.2 47.3 226.7 47.3 227.2C47.4 227.8 46.9 228.2 46.4 228.2Z" fill="#405B91"/>
<path d="M278.2 136.9H277.4C277.4 136.3 276.9 135.8 276.3 135.8C275.7 135.8 275.2 136.3 275.2 136.9H274.4C274.4 135.9 275.2 135 276.3 135C277.4 135 278.2 135.9 278.2 136.9Z" fill="white"/>
<path d="M280.9 93.1002H280.1C280.1 92.5002 279.6 92.0002 279 92.0002C278.4 92.0002 277.9 92.5002 277.9 93.1002H277.1C277.1 92.1002 277.9 91.2002 279 91.2002C280 91.3002 280.9 92.1002 280.9 93.1002Z" fill="white"/>
<path d="M187.3 245.3H151.5L152.1 243.9C154.4 238.3 154.7 233.6 154.3 228.1L154.2 227L184.4 226.9V227.9C184.4 231.4 185.4 239.4 186.8 243.9L187.3 245.3ZM154.6 243.2H184.5C183.3 238.8 182.6 232.6 182.4 228.9L156.5 229C156.7 233.9 156.4 238.3 154.6 243.2Z" fill="#415B91"/>
<path d="M141.2 228.9C114 228.9 91.9996 228.8 91.0996 228.4C88.7996 227.6 85.6996 224.3 85.6996 222.1C85.5996 217.1 85.3996 210.4 85.1996 202.6C84.4996 179.1 83.3996 146.8 84.7996 129C84.9996 125.7 87.6996 123.2 90.8996 123.2H90.9996L247.6 123.4C250.9 123.5 253.6 126.1 253.6 129.5C253.7 134.7 253.9 140 254.1 145.4C254.8 168 255.6 191.4 253.1 213.5C253 214.4 253 215.3 252.9 216.3C252.7 220.9 252.4 226.7 246.5 227.9C243.4 228.6 185.5 228.9 141.2 228.9ZM90.7996 124.9C88.3996 124.9 86.4996 126.7 86.2996 129.1C84.9996 146.9 85.9996 179 86.6996 202.5C86.8996 210.3 87.1996 217.1 87.1996 222C87.1996 223.4 89.5996 226.1 91.4996 226.8C94.7996 227.5 242.1 227 245.9 226.3C250.6 225.4 250.8 220.7 251 216.3C251 215.3 251.1 214.3 251.2 213.4C253.7 191.4 252.9 168.1 252.2 145.6C252 140.2 251.9 134.9 251.7 129.7C251.6 127.2 249.7 125.3 247.3 125.2L90.7996 124.9Z" fill="#415B91"/>
<path fill-rule="evenodd" clip-rule="evenodd" d="M243.2 128.9L95.6003 128.7C92.9003 128.7 90.7003 130.5 90.5003 132.9C88.8003 152.7 91.1003 193.9 91.4003 210.5C91.4003 212.1 94.1003 214.5 96.0003 215.1C98.2003 215.8 238.5 215.3 241.9 214.7C248.1 213.6 247 207.3 247.5 203.3C250.4 180.5 248.6 155.7 248 133.4C248 130.8 245.8 128.9 243.2 128.9Z" fill="#B6D0FB"/>
<path d="M200.1 251H138.7C136.3 251 135 249.1 135 247.2C135 245.3 136.3 243.4 138.7 243.4H200.1C202.5 243.4 203.8 245.3 203.8 247.2C203.8 249.1 202.5 251 200.1 251ZM138.7 245C137.1 245 136.7 246.3 136.7 247.1C136.7 247.9 137.1 249.2 138.7 249.2H200.1C201.7 249.2 202.1 247.9 202.1 247.1C202.1 246.3 201.7 245 200.1 245H138.7Z" fill="#415B91"/>
<path d="M95.9 223.1C98.7 223.1 98.7 218.8 95.9 218.8C93.2 218.8 93.2 223.1 95.9 223.1Z" fill="#415B91"/>
<path d="M104.6 223.1C107.4 223.1 107.4 218.8 104.6 218.8C101.8 218.8 101.8 223.1 104.6 223.1Z" fill="#415B91"/>
<path d="M113.2 223.1C116 223.1 116 218.8 113.2 218.8C110.4 218.8 110.4 223.1 113.2 223.1Z" fill="#415B91"/>
<path d="M169.4 127.6C170.7 127.6 170.7 125.6 169.4 125.6C168.1 125.6 168.1 127.6 169.4 127.6Z" fill="#415B91"/>
<path d="M342.599 246.9H321.399L329.499 220.2H334.399L342.599 246.9Z" fill="#B6D0FB"/>
<path d="M344.3 246.9H319.6V250H344.3V246.9Z" fill="#B6D0FB"/>
<path d="M323.399 240.2L321.399 246.9H342.599L340.499 240.2H323.399Z" fill="#415B91"/>
<path d="M325.5 233.5H338.5L336.4 226.9H327.5L325.5 233.5Z" fill="#415B91"/>
<path d="M351.2 249.8H355.9V231.6H380V249.8H384.7V231.6H389.7V217.1H385.7V215.8H378.9V217.1H357.5V215.8H350.7V217.1H346.3V231.6H351.2V249.8ZM388.2 218.6L385.3 230.1H380.1L383 218.6H388.2ZM374.7 230.1H369.5L372.4 218.6H377.6L374.7 230.1ZM364.1 230.1H358.9L361.8 218.6H367L364.1 230.1ZM351.3 218.6H356.5L353.6 230.1H348.4L351.3 218.6Z" fill="#B6D0FB"/>
<path d="M120.3 72.1004L121.7 70.7004C122 70.4004 122 70.0004 121.7 69.7004L120.5 68.5004C120.2 68.2004 120.1 67.7004 120.3 67.3004L121.3 64.9004C121.4 64.5004 121.8 64.2004 122.2 64.2004H123.9C124.3 64.2004 124.6 63.9004 124.6 63.5004V61.5004C124.6 61.1004 124.3 60.8004 123.9 60.8004H122.2C121.8 60.8004 121.4 60.5004 121.3 60.1004L120.3 57.7004C120.1 57.3004 120.2 56.8004 120.5 56.5004L121.7 55.3004C122 55.0004 122 54.6004 121.7 54.3004L120.3 52.9004C120 52.6004 119.6 52.6004 119.3 52.9004L118 54.0004C117.7 54.3004 117.2 54.4004 116.8 54.2004L114.4 53.2004C114 53.1004 113.7 52.7004 113.7 52.3004V50.6004C113.7 50.2004 113.4 49.9004 113 49.9004H111C110.6 49.9004 110.3 50.2004 110.3 50.6004V52.3004C110.3 52.7004 110 53.1004 109.6 53.2004L107.2 54.2004C106.8 54.4004 106.3 54.3004 106 54.0004L104.8 52.8004C104.5 52.5004 104.1 52.5004 103.8 52.8004L102.4 54.2004C102.1 54.5004 102.1 54.9004 102.4 55.2004L103.6 56.4004C103.9 56.7004 104 57.2004 103.8 57.6004L102.8 60.0004C102.7 60.4004 102.3 60.7004 101.9 60.7004H100.2C99.8 60.7004 99.5 61.0004 99.5 61.4004V63.4004C99.5 63.8004 99.8 64.1004 100.2 64.1004H101.9C102.3 64.1004 102.7 64.4004 102.8 64.8004L103.8 67.2004C104 67.6004 103.9 68.1004 103.6 68.4004L102.4 69.6004C102.1 69.9004 102.1 70.3004 102.4 70.6004L103.8 72.0004C104.1 72.3004 104.5 72.3004 104.8 72.0004L106 70.8004C106.3 70.5004 106.8 70.4004 107.2 70.6004L109.6 71.6004C110 71.7004 110.3 72.1004 110.3 72.5004V74.2004C110.3 74.6004 110.6 74.9004 111 74.9004H113C113.4 74.9004 113.7 74.6004 113.7 74.2004V72.5004C113.7 72.1004 114 71.7004 114.4 71.6004L116.8 70.6004C117.2 70.4004 117.7 70.5004 118 70.8004L119.2 72.0004C119.5 72.4004 120 72.4004 120.3 72.1004ZM112 68.2004C108.8 68.2004 106.2 65.6004 106.2 62.4004C106.2 59.2004 108.8 56.6004 112 56.6004C115.2 56.6004 117.8 59.2004 117.8 62.4004C117.8 65.6004 115.2 68.2004 112 68.2004Z" fill="#B6D0FB"/>
<path d="M133.7 77.6002L133.3 76.4002C133.2 76.2002 133 76.0002 132.7 76.1002L131.7 76.4002C131.5 76.5002 131.2 76.4002 131 76.1002L130 74.8002C129.8 74.6002 129.8 74.3002 129.9 74.1002L130.4 73.2002C130.5 73.0002 130.4 72.7002 130.2 72.6002L129.1 72.0002C128.9 71.9002 128.6 72.0002 128.5 72.2002L128 73.1002C127.9 73.3002 127.6 73.5002 127.3 73.4002L125.7 73.2002C125.5 73.2002 125.2 73.0002 125.1 72.8002L124.8 71.8002C124.7 71.6002 124.5 71.4002 124.2 71.5002L123 71.9002C122.8 72.0002 122.6 72.2002 122.7 72.5002L123 73.5002C123.1 73.7002 123 74.0002 122.7 74.2002L121.4 75.2002C121.2 75.4002 120.9 75.4002 120.7 75.3002L119.8 74.8002C119.6 74.7002 119.3 74.8002 119.2 75.0002L118.6 76.1002C118.5 76.3002 118.6 76.6002 118.8 76.7002L119.7 77.2002C119.9 77.3002 120.1 77.6002 120 77.9002L119.8 79.5002C119.8 79.7002 119.6 80.0002 119.4 80.1002L118.4 80.4002C118.2 80.5002 118 80.7002 118.1 81.0002L118.5 82.2002C118.6 82.4002 118.8 82.6002 119.1 82.5002L120.1 82.2002C120.3 82.1002 120.6 82.2002 120.8 82.4002L121.8 83.7002C122 83.9002 122 84.2002 121.9 84.4002L121.4 85.3002C121.3 85.5002 121.4 85.8002 121.6 85.9002L122.7 86.5002C122.9 86.6002 123.2 86.5002 123.3 86.3002L123.8 85.4002C123.9 85.2002 124.2 85.0002 124.5 85.1002L126.1 85.3002C126.4 85.3002 126.6 85.5002 126.7 85.7002L127 86.7002C127.1 86.9002 127.3 87.1002 127.6 87.0002L128.8 86.6002C129 86.5002 129.2 86.3002 129.1 86.0002L128.8 85.0002C128.7 84.8002 128.8 84.5002 129 84.3002L130.3 83.3002C130.5 83.1002 130.8 83.1002 131 83.2002L131.9 83.7002C132.1 83.8002 132.4 83.7002 132.5 83.5002L133.1 82.4002C133.2 82.2002 133.1 81.9002 132.9 81.8002L132 81.3002C131.8 81.2002 131.6 80.9002 131.7 80.6002L132 79.0002C132 78.8002 132.2 78.5002 132.4 78.4002L133.4 78.1002C133.7 78.1002 133.8 77.8002 133.7 77.6002ZM129.2 81.0002C128.3 82.8002 126.1 83.4002 124.3 82.5002C122.5 81.6002 121.9 79.4002 122.8 77.6002C123.7 75.8002 125.9 75.2002 127.7 76.1002C129.5 77.0002 130.2 79.2002 129.2 81.0002Z" fill="#B6D0FB"/>
<path d="M192.6 100.4H160C159.4 100.4 159 99.9004 159 99.4004C159 98.8004 159.5 98.4004 160 98.4004H192.6C193.2 98.4004 193.6 98.9004 193.6 99.4004C193.7 99.9004 193.2 100.4 192.6 100.4Z" fill="#405B91"/>
<path d="M126.3 115.2H73.5996C72.9996 115.2 72.5996 114.7 72.5996 114.2C72.5996 113.7 73.0996 113.2 73.5996 113.2H126.3C126.9 113.2 127.3 113.7 127.3 114.2C127.3 114.7 126.8 115.2 126.3 115.2Z" fill="#405B91"/>
<path d="M378.7 143.2H326C325.4 143.2 325 142.7 325 142.2C325 141.7 325.5 141.2 326 141.2H378.7C379.3 141.2 379.7 141.7 379.7 142.2C379.7 142.7 379.3 143.2 378.7 143.2Z" fill="#405B91"/>
<path d="M399.4 252H1C0.4 252 0 251.5 0 251C0 250.4 0.5 250 1 250H399.4C400 250 400.4 250.5 400.4 251C400.5 251.5 400 252 399.4 252Z" fill="#405B91"/>
<path d="M253.3 87.2998C251.1 87.2998 249 88.1998 247.4 89.6998C244.7 92.3998 244.2 96.5998 246.1 99.7998L246.2 99.9998L237.7 108.5C237.7 108.5 237.3 108.9 237.3 109.5C237.3 109.9 237.5 110.4 237.9 110.8C238.4 111.3 238.8 111.5 239.3 111.5C239.9 111.5 240.3 111.2 240.3 111.2L248.7 102.7L248.9 102.8C250.2 103.6 251.6 103.9 253.1 103.9C255.3 103.9 257.4 103 259 101.5C262.3 98.1998 262.3 92.8998 259 89.6998C257.6 88.1998 255.5 87.2998 253.3 87.2998ZM253.3 101.6C250.1 101.6 247.4 98.9998 247.4 95.6998C247.4 92.4998 250 89.7998 253.3 89.7998C256.5 89.7998 259.2 92.3998 259.2 95.6998C259.2 98.8998 256.5 101.6 253.3 101.6Z" fill="#B6D0FB"/>
<path d="M250.2 96.8994H256.3V95.3994H250.2V96.8994Z" fill="#B6D0FB"/>
<path d="M98 250.1C97.4 250.1 97 249.6 97 249.1V169.2C97 168.6 97.5 168.2 98 168.2C98.6 168.2 99 168.7 99 169.2V249.1C99 249.6 98.6 250.1 98 250.1Z" fill="#405B91"/>
<path d="M116.5 250.1C115.9 250.1 115.5 249.6 115.5 249.1V169.2C115.5 168.6 116 168.2 116.5 168.2C117 168.2 117.5 168.7 117.5 169.2V249.1C117.6 249.6 117.1 250.1 116.5 250.1Z" fill="#405B91"/>
<path d="M116.5 175.7H98C97.4 175.7 97 175.2 97 174.7C97 174.1 97.5 173.7 98 173.7H116.6C117.2 173.7 117.6 174.2 117.6 174.7C117.6 175.2 117.1 175.7 116.5 175.7Z" fill="#405B91"/>
<path d="M116.5 184.8H98C97.4 184.8 97 184.3 97 183.8C97 183.2 97.5 182.8 98 182.8H116.6C117.2 182.8 117.6 183.3 117.6 183.8C117.6 184.3 117.1 184.8 116.5 184.8Z" fill="#405B91"/>
<path d="M116.5 193.9H98C97.4 193.9 97 193.4 97 192.9C97 192.3 97.5 191.9 98 191.9H116.6C117.2 191.9 117.6 192.4 117.6 192.9C117.6 193.5 117.1 193.9 116.5 193.9Z" fill="#405B91"/>
<path d="M116.5 203.101H98C97.4 203.101 97 202.601 97 202.101C97 201.501 97.5 201.101 98 201.101H116.6C117.2 201.101 117.6 201.601 117.6 202.101C117.6 202.601 117.1 203.101 116.5 203.101Z" fill="#405B91"/>
<path d="M116.5 212.2H98C97.4 212.2 97 211.7 97 211.2C97 210.6 97.5 210.2 98 210.2H116.6C117.2 210.2 117.6 210.7 117.6 211.2C117.6 211.7 117.1 212.2 116.5 212.2Z" fill="#405B91"/>
<path d="M116.5 221.3H98C97.4 221.3 97 220.8 97 220.3C97 219.8 97.5 219.3 98 219.3H116.6C117.2 219.3 117.6 219.8 117.6 220.3C117.6 220.8 117.1 221.3 116.5 221.3Z" fill="#405B91"/>
<path d="M116.5 230.4H98C97.4 230.4 97 229.9 97 229.4C97 228.8 97.5 228.4 98 228.4H116.6C117.2 228.4 117.6 228.9 117.6 229.4C117.6 230 117.1 230.4 116.5 230.4Z" fill="#405B91"/>
<path d="M116.5 239.5H98C97.4 239.5 97 239 97 238.5C97 237.9 97.5 237.5 98 237.5H116.6C117.2 237.5 117.6 238 117.6 238.5C117.6 239.1 117.1 239.5 116.5 239.5Z" fill="#405B91"/>
<path d="M72.7002 173.1C72.1002 173.1 71.7002 172.6 71.7002 172.1V168.1C71.7002 167.5 72.2002 167.1 72.7002 167.1C73.3002 167.1 73.7002 167.6 73.7002 168.1V172.1C73.7002 172.6 73.3002 173.1 72.7002 173.1Z" fill="#405B91"/>
<path d="M74.7002 171H70.7002C70.1002 171 69.7002 170.5 69.7002 170C69.7002 169.4 70.2002 169 70.7002 169H74.7002C75.3002 169 75.7002 169.5 75.7002 170C75.8002 170.6 75.3002 171 74.7002 171Z" fill="#405B91"/>
<path d="M166 28.5996C165.4 28.5996 165 28.0996 165 27.5996V23.5996C165 22.9996 165.5 22.5996 166 22.5996C166.6 22.5996 167 23.0996 167 23.5996V27.5996C167 28.1996 166.5 28.5996 166 28.5996Z" fill="#405B91"/>
<path d="M168 26.5996H164C163.4 26.5996 163 26.0996 163 25.5996C163 25.0996 163.5 24.5996 164 24.5996H168C168.6 24.5996 169 25.0996 169 25.5996C169 26.0996 168.6 26.5996 168 26.5996Z" fill="#405B91"/>
<path d="M198.7 237.701C198.6 237.701 198.5 237.701 198.4 237.701L194.5 236.601C193.9 236.401 193.6 235.901 193.8 235.301C194 234.701 194.5 234.401 195.1 234.601L199 235.701C199.6 235.901 199.9 236.401 199.7 237.001C199.5 237.401 199.1 237.701 198.7 237.701Z" fill="#405B91"/>
<path d="M196.2 239.1C196.1 239.1 196 239.1 195.9 239.1C195.3 238.9 195 238.4 195.2 237.8L196.3 233.9C196.5 233.3 197 233 197.6 233.2C198.2 233.4 198.5 233.9 198.3 234.5L197.2 238.4C197 238.8 196.6 239.1 196.2 239.1Z" fill="#405B91"/>
<path d="M178.3 115.701C178.2 115.701 178.1 115.701 178 115.701L174.1 114.601C173.5 114.401 173.2 113.901 173.4 113.301C173.6 112.701 174.1 112.401 174.7 112.601L178.6 113.701C179.2 113.901 179.5 114.401 179.3 115.001C179.1 115.401 178.7 115.701 178.3 115.701Z" fill="#405B91"/>
<path d="M175.8 117.1C175.7 117.1 175.6 117.1 175.5 117.1C174.9 116.9 174.6 116.4 174.8 115.8L175.9 111.9C176.1 111.3 176.6 111 177.2 111.2C177.8 111.4 178.1 111.9 177.9 112.5L176.8 116.4C176.6 116.8 176.2 117.1 175.8 117.1Z" fill="#405B91"/>
<path d="M185.697 87.7145C191.321 82.091 191.321 72.9735 185.697 67.35C180.074 61.7265 170.956 61.7265 165.333 67.35C159.709 72.9735 159.709 82.091 165.333 87.7145C170.956 93.338 180.074 93.338 185.697 87.7145Z" fill="#B6D0FB"/>
<path d="M175.5 88.3002C181.465 88.3002 186.3 83.4649 186.3 77.5002C186.3 71.5355 181.465 66.7002 175.5 66.7002C169.536 66.7002 164.7 71.5355 164.7 77.5002C164.7 83.4649 169.536 88.3002 175.5 88.3002Z" fill="white"/>
<path d="M175.5 88.6998C169.3 88.6998 164.3 83.6998 164.3 77.4998C164.3 71.2998 169.3 66.2998 175.5 66.2998C181.7 66.2998 186.7 71.2998 186.7 77.4998C186.8 83.6998 181.7 88.6998 175.5 88.6998ZM175.5 67.0998C169.8 67.0998 165.1 71.7998 165.1 77.4998C165.1 83.1998 169.8 87.8998 175.5 87.8998C181.2 87.8998 185.9 83.1998 185.9 77.4998C185.9 71.7998 181.3 67.0998 175.5 67.0998Z" fill="#405B91"/>
<path d="M175.5 77.9006C175.3 77.9006 175.1 77.7006 175.1 77.5006V72.0006C175.1 71.8006 175.3 71.6006 175.5 71.6006C175.7 71.6006 175.9 71.8006 175.9 72.0006V77.5006C176 77.7006 175.8 77.9006 175.5 77.9006Z" fill="#405B91"/>
<path d="M181.999 77.9006H175.599C175.399 77.9006 175.199 77.7006 175.199 77.5006C175.199 77.3006 175.399 77.1006 175.599 77.1006H181.999C182.199 77.1006 182.399 77.3006 182.399 77.5006C182.399 77.7006 182.199 77.9006 181.999 77.9006Z" fill="#405B91"/>
<path d="M175.999 67.9C175.999 68.1 175.799 68.3 175.599 68.3C175.399 68.3 175.199 68.1 175.199 67.9C175.199 67.7 175.399 67.5 175.599 67.5C175.799 67.5 175.999 67.7 175.999 67.9Z" fill="#405B91"/>
<path d="M182.299 71.0998C182.52 71.0998 182.699 70.9207 182.699 70.6998C182.699 70.4789 182.52 70.2998 182.299 70.2998C182.079 70.2998 181.899 70.4789 181.899 70.6998C181.899 70.9207 182.079 71.0998 182.299 71.0998Z" fill="#405B91"/>
<path d="M185.099 77.8996C184.899 77.8996 184.699 77.6996 184.699 77.4996C184.699 77.2996 184.899 77.0996 185.099 77.0996C185.299 77.0996 185.499 77.2996 185.499 77.4996C185.499 77.6996 185.399 77.8996 185.099 77.8996Z" fill="#405B91"/>
<path d="M182.299 84.7004C182.52 84.7004 182.699 84.5213 182.699 84.3004C182.699 84.0795 182.52 83.9004 182.299 83.9004C182.079 83.9004 181.899 84.0795 181.899 84.3004C181.899 84.5213 182.079 84.7004 182.299 84.7004Z" fill="#405B91"/>
<path d="M175.1 87.1002C175.1 86.9002 175.3 86.7002 175.5 86.7002C175.7 86.7002 175.9 86.9002 175.9 87.1002C175.9 87.3002 175.7 87.5002 175.5 87.5002C175.3 87.5002 175.1 87.3002 175.1 87.1002Z" fill="#405B91"/>
<path d="M168.5 83.9996C168.7 83.7996 168.9 83.7996 169.1 83.9996C169.3 84.1996 169.3 84.3996 169.1 84.5996C168.9 84.7996 168.7 84.7996 168.5 84.5996C168.3 84.3996 168.3 84.0996 168.5 83.9996Z" fill="#405B91"/>
<path d="M166 77.8996C166.221 77.8996 166.4 77.7205 166.4 77.4996C166.4 77.2787 166.221 77.0996 166 77.0996C165.779 77.0996 165.6 77.2787 165.6 77.4996C165.6 77.7205 165.779 77.8996 166 77.8996Z" fill="#405B91"/>
<path d="M169.1 70.4002C169.3 70.6002 169.3 70.8002 169.1 71.0002C168.9 71.2002 168.7 71.2002 168.5 71.0002C168.3 70.8002 168.3 70.6002 168.5 70.4002C168.6 70.3002 168.9 70.3002 169.1 70.4002Z" fill="#405B91"/>
<path d="M196.6 72.0002H190.6C190.4 72.0002 190.2 71.8002 190.2 71.6002C190.2 71.4002 190.4 71.2002 190.6 71.2002H196.6C196.8 71.2002 197 71.4002 197 71.6002C197 71.8002 196.9 72.0002 196.6 72.0002Z" fill="#405B91"/>
<path d="M196.6 83.8H190.6C190.4 83.8 190.2 83.6 190.2 83.4C190.2 83.2 190.4 83 190.6 83H196.6C196.8 83 197 83.2 197 83.4C197 83.6 196.9 83.8 196.6 83.8Z" fill="#405B91"/>
<path d="M204.1 77.9006H192.8C192.6 77.9006 192.4 77.7006 192.4 77.5006C192.4 77.3006 192.6 77.1006 192.8 77.1006H204.1C204.3 77.1006 204.5 77.3006 204.5 77.5006C204.6 77.7006 204.4 77.9006 204.1 77.9006Z" fill="#405B91"/>
<path d="M223.9 233.5H217.2V240.2H223.9V233.5Z" fill="white"/>
<path d="M224.4 240.7H216.7V233H224.4V240.7ZM217.7 239.7H223.3V234.1H217.7V239.7Z" fill="#415B91"/>
<path d="M232.299 235H226.299C226.099 235 225.899 234.8 225.899 234.6C225.899 234.4 226.099 234.2 226.299 234.2H232.299C232.499 234.2 232.699 234.4 232.699 234.6C232.699 234.8 232.499 235 232.299 235Z" fill="#405B91"/>
<path d="M234.6 239.6H226.4C226.1 239.6 225.8 239.4 225.8 239.2C225.8 239 226.1 238.8 226.4 238.8H234.6C234.9 238.8 235.2 239 235.2 239.2C235.2 239.4 234.9 239.6 234.6 239.6Z" fill="#405B91"/>
<path d="M237.599 237.2H226.299C226.099 237.2 225.899 237 225.899 236.8C225.899 236.6 226.099 236.4 226.299 236.4H237.599C237.799 236.4 237.999 236.6 237.999 236.8C237.999 237 237.799 237.2 237.599 237.2Z" fill="#405B91"/>
<path d="M70.383 142.145H77.083V135.445H70.383V142.145Z" fill="white"/>
<path d="M77.7 142.7H70V135H77.7V142.7ZM71 141.6H76.6V136H71V141.6Z" fill="#415B91"/>
<path d="M61.9996 137H67.9996C68.1996 137 68.3996 136.8 68.3996 136.6C68.3996 136.4 68.1996 136.2 67.9996 136.2H61.9996C61.7996 136.2 61.5996 136.4 61.5996 136.6C61.5996 136.8 61.7996 137 61.9996 137Z" fill="#405B91"/>
<path d="M59.6996 141.5H67.8996C68.1996 141.5 68.4996 141.3 68.4996 141.1C68.4996 140.9 68.1996 140.7 67.8996 140.7H59.6996C59.3996 140.7 59.0996 140.9 59.0996 141.1C59.1996 141.3 59.3996 141.5 59.6996 141.5Z" fill="#405B91"/>
<path d="M56.6998 139.1H67.9998C68.1998 139.1 68.3998 138.9 68.3998 138.7C68.3998 138.5 68.1998 138.3 67.9998 138.3H56.6998C56.4998 138.3 56.2998 138.5 56.2998 138.7C56.2998 138.9 56.4998 139.1 56.6998 139.1Z" fill="#405B91"/>
<path d="M276.3 160.6H274.2V249.8H276.3V160.6Z" fill="#3F5B91"/>
<path d="M275.5 171.4H275C271.6 171.4 268.8 168.6 268.8 165.2V157C268.8 153.6 271.6 150.8 275 150.8H275.5C278.9 150.8 281.7 153.6 281.7 157V165.2C281.7 168.6 278.9 171.4 275.5 171.4Z" fill="#B6D0FB"/>
<path d="M283.6 165.4C284.3 165.5 285.1 165.6 285.8 165.8C286.3 165.9 286.5 165.1 286 165C285.3 164.9 284.5 164.8 283.8 164.6C283.3 164.6 283.1 165.3 283.6 165.4Z" fill="#3F5B91"/>
<path d="M283.6 160.7C284.2 160.6 284.7 160.6 285.3 160.6C285.8 160.6 285.8 159.9 285.3 159.8C284.7 159.7 284 159.8 283.4 159.9C282.9 160 283.1 160.7 283.6 160.7Z" fill="#3F5B91"/>
<path d="M283.3 156.3C283.9 156.1 284.4 155.9 285 155.6C285.5 155.4 285.3 154.7 284.8 154.8C284.2 155 283.7 155.2 283.1 155.5C282.7 155.8 282.9 156.5 283.3 156.3Z" fill="#3F5B91"/>
<path d="M264.2 166.099C264.8 165.999 265.3 165.899 265.9 165.699C266.4 165.499 266.2 164.799 265.7 164.899C265.2 165.099 264.6 165.199 264 165.299C263.5 165.499 263.8 166.199 264.2 166.099Z" fill="#3F5B91"/>
<path d="M263.2 160.6C263.9 160.6 264.6 160.7 265.3 160.9C265.8 161 266 160.3 265.5 160.1C264.7 159.9 264 159.8 263.2 159.7C262.7 159.8 262.7 160.6 263.2 160.6Z" fill="#3F5B91"/>
<path d="M263.9 154.2C264.5 154.4 265 154.6 265.6 154.7C266.1 154.9 266.3 154.1 265.8 153.9C265.2 153.7 264.7 153.5 264.1 153.4C263.6 153.3 263.4 154.1 263.9 154.2Z" fill="#3F5B91"/>
<path d="M270.4 251L271.8 239.1H278.6L280.1 250.8L270.4 251Z" fill="#405B91"/>
<path d="M80.0998 193.9C79.7998 192 78.4998 187.1 75.4998 188.7C70.6998 191.2 76.4998 200.7 70.6998 202.4C70.3998 198.6 69.5998 196 67.8998 196.2C64.3998 196.5 65.2998 204.7 65.1998 206.6C65.0998 208.4 65.0998 210.3 64.9998 212.2C60.7998 212.9 61.6998 202.1 59.0998 200.6C55.1998 198.3 54.2998 203.5 54.3998 205.9C54.5998 210 55.6998 214.9 59.4998 217C60.7998 217.7 62.9998 218.5 64.6998 218.4C64.6998 221.7 64.7998 224.9 65.3998 228H65.4998L67.7998 228.1C67.7998 229.1 69.3998 229.1 69.3998 228.1C69.3998 226.1 70.5998 216.5 70.7998 208.3C72.6998 208.6 74.9998 207.7 76.2998 206.7C80.3998 203.8 80.7998 198.4 80.0998 193.9Z" fill="#6CDD6C"/>
<path d="M68.7001 229.3C68.5001 229.3 68.2001 229.2 68.0001 229.1C67.8001 228.9 67.6001 228.7 67.5001 228.4L65.8001 228.3H65.2001L65.1001 227.9C64.6001 225.3 64.4001 222.3 64.4001 218.7C62.5001 218.7 60.4001 217.8 59.4001 217.2C55.3001 214.9 54.2001 209.7 54.1001 205.7C54.0001 204.1 54.4001 200.8 56.2001 199.7C57.1001 199.2 58.2001 199.3 59.5001 200C60.7001 200.7 61.2001 202.9 61.7001 205.5C62.4001 209 63.1001 211.5 64.7001 211.5V210.6C64.8001 209.1 64.8001 207.7 64.9001 206.2C64.9001 205.9 64.9001 205.5 64.9001 205C64.8001 201.8 64.6001 195.7 68.0001 195.4C68.5001 195.3 69.0001 195.5 69.4001 195.9C70.3001 196.7 71.0001 198.5 71.2001 201.5C73.3001 200.5 73.2001 198.1 73.1001 195.2C73.0001 192.3 72.8001 189.3 75.4001 188C76.2001 187.6 77.0001 187.5 77.7001 187.9C79.8001 189 80.5001 193.1 80.6001 193.6C81.2001 197.1 81.4001 203.4 76.7001 206.8C75.4001 207.8 73.2001 208.6 71.3001 208.5C71.2001 213.9 70.6001 219.7 70.3001 223.7C70.1001 225.7 70.0001 227.2 70.0001 227.9C70.0001 228.4 69.8001 228.7 69.4001 228.9C69.1001 229.3 68.9001 229.3 68.7001 229.3ZM65.9001 227.5L68.4001 227.6V228C68.4001 228.2 68.5001 228.3 68.5001 228.3C68.6001 228.4 68.8001 228.4 68.9001 228.3C69.0001 228.2 69.1001 228.2 69.1001 228C69.1001 227.3 69.2001 225.8 69.4001 223.8C69.8001 219.8 70.3001 213.6 70.4001 208.2V207.7L70.9001 207.8C72.6001 208.1 74.9001 207.2 76.1001 206.3C80.4001 203.1 80.2001 197.2 79.6001 194C79.4001 192.6 78.6001 189.7 77.2001 189C76.7001 188.8 76.2001 188.8 75.7001 189.1C73.7001 190.2 73.8001 192.7 73.9001 195.5C74.0001 198.5 74.2001 201.9 70.8001 202.9L70.3001 203.1V202.6C70.0001 198.8 69.3001 197.5 68.7001 197C68.5001 196.8 68.2001 196.7 67.9001 196.7C65.3001 196.9 65.5001 202.6 65.6001 205.4C65.6001 206 65.6001 206.4 65.6001 206.7C65.6001 208.1 65.5001 209.6 65.4001 211.1L65.3001 212.7L65.0001 212.8C62.2001 213.3 61.4001 209.5 60.6001 206.1C60.1001 203.9 59.7001 201.7 58.8001 201.2C57.8001 200.6 57.0001 200.5 56.4001 200.9C55.1001 201.7 54.7001 204.5 54.8001 206.1C55.0001 209.8 56.0001 214.8 59.7001 216.9C61.0001 217.6 63.1001 218.3 64.7001 218.2H65.2001V218.7C65.3001 222 65.4001 224.9 65.9001 227.5Z" fill="#50AA50"/>
<path d="M75.5 250H58.6C57.7 250 57 249.4 56.8 248.5L53 228.8L54.6 228.5L58.4 248.2C58.4 248.4 58.6 248.4 58.6 248.4H75.5C75.5 248.4 75.7 248.4 75.7 248.2L79.5 228.5L81.1 228.8L77.3 248.5C77.2 249.4 76.4 250 75.5 250Z" fill="#415B91"/>
<path d="M53.2008 222.501H81.2008C81.7008 222.501 82.1008 223.001 82.1008 223.701V228.001C82.1008 228.601 81.7008 229.201 81.2008 229.201H53.2008C52.7008 229.201 52.3008 228.701 52.3008 228.001V223.701C52.3008 223.001 52.7008 222.501 53.2008 222.501Z" fill="#B6D0FB"/>
<path d="M81.2004 229.501H53.2004C52.5004 229.501 51.9004 228.801 51.9004 227.901V223.601C51.9004 222.701 52.5004 222.001 53.2004 222.001H81.2004C81.9004 222.001 82.5004 222.701 82.5004 223.601V227.901C82.5004 228.801 81.9004 229.501 81.2004 229.501ZM53.2004 222.901C53.0004 222.901 52.8004 223.201 52.8004 223.601V227.901C52.8004 228.301 53.0004 228.601 53.2004 228.601H81.2004C81.4004 228.601 81.6004 228.301 81.6004 227.901V223.601C81.6004 223.201 81.4004 222.901 81.2004 222.901H53.2004Z" fill="#405B91"/>
<path d="M81.2 229.5H53.2C52.5 229.5 52 228.8 52 228V223.7C52 222.8 52.6 222.2 53.2 222.2H81.2C81.9 222.2 82.4 222.9 82.4 223.7V228C82.5 228.8 81.9 229.5 81.2 229.5ZM53.2 222.9C53 222.9 52.7 223.2 52.7 223.7V228C52.7 228.5 53 228.8 53.2 228.8H81.2C81.4 228.8 81.7 228.5 81.7 228V223.7C81.7 223.2 81.4 222.9 81.2 222.9H53.2Z" fill="#B6D0FB"/>
<path d="M81.2 229.901H53.2C52.3 229.901 51.5 229.001 51.5 227.901V223.601C51.5 222.501 52.3 221.601 53.2 221.601H81.2C82.1 221.601 82.9 222.501 82.9 223.601V227.901C82.9 229.001 82.1 229.901 81.2 229.901ZM53.2 223.301C53.2 223.301 53.1 223.501 53.1 223.701V228.001C53.1 228.201 53.2 228.401 53.2 228.401H81.2C81.2 228.401 81.3 228.301 81.3 228.001V223.701C81.3 223.501 81.2 223.301 81.2 223.301H53.2Z" fill="#405B91"/>
<path d="M56.2998 205.8C56.7998 205.9 57.1998 205.9 57.6998 206C58.1998 206.1 58.1998 205.3 57.6998 205.2C57.1998 205.1 56.7998 205.1 56.2998 205C55.7998 204.9 55.7998 205.7 56.2998 205.8Z" fill="#50AA50"/>
<path d="M58.2998 199.7C58.2998 199.9 58.2998 200.2 58.2998 200.4C58.2998 200.9 59.0998 200.9 59.0998 200.4C59.0998 200.2 59.0998 199.9 59.0998 199.7C59.0998 199.2 58.2998 199.2 58.2998 199.7Z" fill="#50AA50"/>
<path d="M60.9999 206.8C61.2999 206.6 61.6999 206.4 61.9999 206.2C62.3999 206 61.9999 205.3 61.5999 205.5C61.2999 205.7 60.8999 205.9 60.5999 206.1C60.0999 206.4 60.4999 207 60.9999 206.8Z" fill="#50AA50"/>
<path d="M57.0003 215.701C57.4003 215.401 57.8003 215.101 58.2003 214.801C58.6003 214.501 58.2003 213.801 57.8003 214.101C57.4003 214.401 57.0003 214.701 56.6003 215.001C56.2003 215.301 56.6003 216.001 57.0003 215.701Z" fill="#50AA50"/>
<path d="M54.1002 209C54.4002 209.1 54.7002 209.2 55.0002 209.3C55.5002 209.5 55.7002 208.7 55.2002 208.5C54.9002 208.4 54.6002 208.3 54.3002 208.2C53.8002 208.1 53.6002 208.9 54.1002 209Z" fill="#50AA50"/>
<path d="M59.7001 212.7C59.9001 212.7 60.0001 212.8 60.1001 212.9C60.4001 213.3 61.0001 212.7 60.6001 212.3C60.4001 212 60.0001 211.9 59.6001 211.8C59.2001 211.8 59.2001 212.6 59.7001 212.7Z" fill="#50AA50"/>
<path d="M61.3996 216.3C61.2996 216.8 61.3996 217.3 61.5996 217.8C61.7996 218.3 62.4996 217.9 62.2996 217.4C62.1996 217.1 62.0996 216.8 62.1996 216.5C62.1996 216 61.4996 215.8 61.3996 216.3Z" fill="#50AA50"/>
<path d="M65.4996 216.5C65.6996 216.6 65.9996 216.6 66.1996 216.7C66.6996 216.8 66.8996 216.1 66.3996 215.9C66.1996 215.8 65.8996 215.8 65.6996 215.7C65.1996 215.6 64.9996 216.3 65.4996 216.5Z" fill="#50AA50"/>
<path d="M68 208.801C68 209.201 68.1 209.601 68.5 209.901C68.9 210.201 69.4 209.701 69.1 209.301C68.9 209.101 68.8 209.001 68.9 208.701C68.8 208.301 68 208.301 68 208.801Z" fill="#50AA50"/>
<path d="M67 203.301C66.8 203.601 66.7 203.901 66.8 204.301C66.9 204.801 67.6 204.601 67.6 204.101C67.6 203.901 67.6 203.801 67.7 203.701C67.9 203.201 67.3 202.901 67 203.301Z" fill="#50AA50"/>
<path d="M71.2002 205.5C71.2002 205.7 71.2002 206 71.2002 206.2C71.2002 206.7 72.0002 206.7 72.0002 206.2C72.0002 206 72.0002 205.7 72.0002 205.5C72.0002 205 71.2002 205 71.2002 205.5Z" fill="#50AA50"/>
<path d="M63.9997 204.301C64.1997 204.401 64.2997 204.501 64.4997 204.601C64.8997 204.901 65.2997 204.201 64.8997 203.901C64.6997 203.801 64.5997 203.701 64.3997 203.601C63.9997 203.401 63.5997 204.001 63.9997 204.301Z" fill="#50AA50"/>
<path d="M65.2995 197.9C65.4995 198.1 65.4995 198.3 65.4995 198.5C65.4995 199 66.2995 199 66.2995 198.5C66.2995 198.1 66.0995 197.7 65.7995 197.4C65.4995 196.9 64.9995 197.5 65.2995 197.9Z" fill="#50AA50"/>
<path d="M67.2998 195.5C67.2998 195.8 67.2998 196.2 67.2998 196.5C67.2998 197 68.0998 197 68.0998 196.5C68.0998 196.2 68.0998 195.8 68.0998 195.5C68.0998 195 67.2998 195 67.2998 195.5Z" fill="#50AA50"/>
<path d="M72.1 200.1C72.2 200.2 72.3 200.3 72.4 200.5C72.7 200.9 73.3 200.3 72.9 199.9C72.8 199.8 72.7 199.7 72.6 199.5C72.3 199.2 71.7 199.7 72.1 200.1Z" fill="#50AA50"/>
<path d="M72.9004 195.401C73.2004 195.401 73.6004 195.401 73.9004 195.501C74.4004 195.501 74.4004 194.801 73.9004 194.701C73.6004 194.701 73.2004 194.701 72.9004 194.601C72.4004 194.601 72.4004 195.401 72.9004 195.401Z" fill="#50AA50"/>
<path d="M74.0004 189.2C74.2004 189.4 74.5004 189.7 74.7004 189.9C75.1004 190.3 75.6004 189.7 75.2004 189.3C75.0004 189.1 74.7004 188.8 74.5004 188.6C74.2004 188.3 73.6004 188.9 74.0004 189.2Z" fill="#50AA50"/>
<path d="M77 187.2C77 187.6 77 188 77 188.4C77 188.9 77.8 188.9 77.8 188.4C77.8 188 77.8 187.6 77.8 187.2C77.7 186.7 77 186.7 77 187.2Z" fill="#50AA50"/>
<path d="M78.4001 194.5C78.5001 194.3 78.6001 194.2 78.7001 194C79.0001 193.6 78.3001 193.2 78.0001 193.6C77.9001 193.8 77.8001 193.9 77.7001 194.1C77.4001 194.5 78.1001 194.9 78.4001 194.5Z" fill="#50AA50"/>
<path d="M75.7003 202.1C76.0003 202 76.3003 201.9 76.6003 201.8C77.1003 201.6 76.9003 200.9 76.4003 201C76.1003 201.1 75.8003 201.2 75.5003 201.3C75.1003 201.6 75.3003 202.3 75.7003 202.1Z" fill="#50AA50"/>
<path d="M79.1996 201C79.4996 200.9 79.7996 200.9 80.0996 200.8C80.5996 200.7 80.3996 199.9 79.8996 200C79.5996 200.1 79.2996 200.1 78.9996 200.2C78.4996 200.4 78.6996 201.1 79.1996 201Z" fill="#50AA50"/>
<path d="M77 204.7C77 204.8 77 204.8 77 204.9C77 205.4 77.8 205.4 77.8 204.9C77.8 204.8 77.8 204.8 77.8 204.7C77.7 204.2 77 204.2 77 204.7Z" fill="#50AA50"/>
<path d="M70.3001 216.601C70.5001 216.501 70.6001 216.401 70.8001 216.301C71.2001 216.001 70.8001 215.301 70.4001 215.601C70.2001 215.701 70.1001 215.801 69.9001 215.901C69.5001 216.201 69.9001 216.901 70.3001 216.601Z" fill="#50AA50"/>
<path d="M69.8002 219.4C70.1002 219.1 70.4002 218.9 70.9002 218.8C71.4002 218.7 71.2002 217.9 70.7002 218C70.2002 218.1 69.7002 218.4 69.3002 218.8C68.9002 219.2 69.5002 219.8 69.8002 219.4Z" fill="#50AA50"/>
<path d="M66.6 219.901C66.7 220.001 66.7 220.101 66.8 220.201C67 220.601 67.7 220.301 67.5 219.801C67.4 219.701 67.4 219.601 67.3 219.501C67.1 219.101 66.4 219.501 66.6 219.901Z" fill="#50AA50"/>
<path d="M63.7005 220.7C64.1005 220.9 64.6005 221 65.0005 220.9C65.5005 220.8 65.3005 220.1 64.8005 220.1C64.5005 220.2 64.3005 220.1 64.1005 220C63.6005 219.8 63.2005 220.5 63.7005 220.7Z" fill="#50AA50"/>
<path d="M70.0996 213.4C70.5996 213.3 71.0996 213.3 71.6996 213.2C72.1996 213.1 72.1996 212.4 71.6996 212.4C71.1996 212.5 70.6996 212.5 70.0996 212.6C69.5996 212.7 69.5996 213.4 70.0996 213.4Z" fill="#50AA50"/>
<path d="M139.701 179.3C148.101 171.7 156.401 164.2 164.801 156.6C166.001 155.5 164.201 153.6 163.001 154.8C154.601 162.4 146.301 169.9 137.901 177.5C136.701 178.6 138.501 180.4 139.701 179.3Z" fill="#D7E7FF"/>
<path d="M168.1 190.9C176.5 183.3 184.8 175.8 193.2 168.2C194.4 167.1 192.6 165.2 191.4 166.4C183 174 174.7 181.5 166.3 189.1C165.1 190.2 166.9 192 168.1 190.9Z" fill="#D7E7FF"/>
<path d="M137.3 199.4C154.8 182.3 172.4 165.2 189.9 148.1C191.1 146.9 189.3 145.1 188.1 146.3C170.6 163.4 153 180.5 135.5 197.6C134.3 198.8 136.1 200.6 137.3 199.4Z" fill="#D7E7FF"/>
<path d="M217.7 39.7998H216.6V112.2H217.7V39.7998Z" fill="#415B91"/>
<path d="M221.8 112.3C221.8 114.8 219.7 116.9 217.2 116.9C214.7 116.9 212.6 114.8 212.6 112.3C212.6 109.8 214.7 107.7 217.2 107.7C219.7 107.7 221.8 109.7 221.8 112.3Z" fill="#415B91"/>
<path d="M217.199 127.7C217.099 127.7 215.599 127.7 214.499 126.6C213.799 125.9 213.399 124.9 213.399 123.6C213.399 123.3 213.699 123 213.999 123C214.299 123 214.599 123.3 214.599 123.6C214.599 124.5 214.899 125.3 215.299 125.8C215.999 126.5 217.099 126.6 217.099 126.6C218.799 126.6 220.199 125.2 220.199 123.5C220.199 121.8 218.799 120.4 217.099 120.4C216.799 120.4 216.499 120.1 216.499 119.8V116.4C216.499 116.1 216.799 115.8 217.099 115.8C217.399 115.8 217.699 116.1 217.699 116.4V119.2C219.799 119.5 221.399 121.3 221.399 123.5C221.599 125.8 219.599 127.7 217.199 127.7Z" fill="#415B91"/>
<path d="M193.1 130.5C192.9 130.5 192.7 130.3 192.6 130C192.6 129.7 192.8 129.4 193.1 129.4L218 125.7C218.3 125.7 218.6 125.9 218.6 126.2C218.6 126.5 218.4 126.8 218.1 126.8L193.2 130.5H193.1Z" fill="#415B91"/>
<path d="M240.9 138.8C240.8 138.8 240.8 138.8 240.7 138.7L217.8 126.8C217.5 126.7 217.4 126.3 217.6 126C217.7 125.7 218.1 125.6 218.4 125.8L241.3 137.7C241.6 137.8 241.7 138.2 241.5 138.5C241.3 138.7 241.1 138.9 240.9 138.8Z" fill="#415B91"/>
<path d="M238.999 186.601L177.999 176.001C174.799 175.401 172.699 172.401 173.199 169.201L179.299 134.101C179.899 130.901 182.899 128.801 186.099 129.301L247.099 139.901C250.299 140.501 252.399 143.501 251.899 146.701L245.799 181.801C245.199 185.001 242.199 187.101 238.999 186.601Z" fill="white"/>
<path d="M239.8 187.401C239.4 187.401 239 187.401 238.6 187.301L178.1 176.801C176.3 176.501 174.7 175.501 173.7 174.001C172.6 172.501 172.2 170.701 172.6 168.901L178.6 134.201C179.2 130.501 182.8 128.001 186.5 128.601L247 139.101C248.8 139.401 250.4 140.401 251.4 141.901C252.5 143.401 252.9 145.201 252.6 147.001L246.6 181.701C246 185.101 243.1 187.401 239.8 187.401ZM185.3 130.101C182.8 130.101 180.5 131.901 180.1 134.501L174.1 169.201C173.9 170.601 174.2 172.001 175 173.201C175.8 174.401 177 175.101 178.4 175.401L238.9 185.901C241.8 186.401 244.5 184.501 245 181.601L251 146.901C251.2 145.501 250.9 144.101 250.1 142.901C249.3 141.701 248.1 141.001 246.7 140.701L186.2 130.201C185.9 130.101 185.6 130.101 185.3 130.101Z" fill="#415B91"/>
<path d="M238.5 182.801L179.7 172.601C177.7 172.201 176.3 170.301 176.6 168.301L182.2 136.301C182.6 134.301 184.5 132.901 186.5 133.201L245.3 143.401C247.3 143.801 248.7 145.701 248.4 147.701L242.8 179.701C242.5 181.801 240.6 183.101 238.5 182.801Z" fill="#B6D0FB"/>
<path d="M239.1 183.601C238.8 183.601 238.6 183.601 238.3 183.501L179.8 173.301C178.6 173.101 177.5 172.4 176.8 171.4C176.1 170.4 175.8 169.1 176 167.9L181.5 136.101C181.9 133.601 184.4 131.901 186.9 132.301L245.4 142.501C247.9 142.901 249.6 145.4 249.2 147.9L243.7 179.701C243.5 180.901 242.8 182 241.8 182.701C241 183.3 240 183.601 239.1 183.601ZM238.5 182.001C239.3 182.101 240.1 182.001 240.8 181.501C241.5 181.001 241.9 180.301 242.1 179.501L247.6 147.7C247.9 146 246.8 144.401 245.1 144.101L186.6 133.9C184.9 133.6 183.3 134.7 183 136.4L177.5 168.201C177.4 169 177.5 169.801 178 170.501C178.5 171.201 179.2 171.601 180 171.801L238.5 182.001Z" fill="#405B91"/>
<path d="M210.699 177.901L225.899 164.001L234.299 182.101L210.699 177.901Z" fill="white"/>
<path d="M235.2 182.701L209.6 178.201L226.1 163.101L235.2 182.701ZM211.8 177.601L233.4 181.401L225.7 164.901L211.8 177.601Z" fill="#415B91"/>
<path d="M180.6 172.7L207.5 148L222.5 180L180.6 172.7Z" fill="white"/>
<path d="M223.4 180.7L179.5 173.1L207.8 147.2L223.4 180.7ZM181.7 172.4L221.6 179.3L207.4 148.8L181.7 172.4Z" fill="#415B91"/>
<path d="M239.6 152.701C239.2 154.801 237.3 156.101 235.2 155.801C233.1 155.401 231.8 153.501 232.1 151.401C232.4 149.301 234.4 148.001 236.5 148.301C238.6 148.701 240 150.601 239.6 152.701Z" fill="white"/>
<path d="M235.9 156.3C235.7 156.3 235.4 156.3 235.2 156.2C232.9 155.8 231.3 153.6 231.7 151.2C231.9 150.1 232.5 149.1 233.5 148.4C234.4 147.7 235.6 147.5 236.7 147.7C237.8 147.9 238.8 148.5 239.5 149.5C240.2 150.4 240.4 151.6 240.2 152.7C240 153.8 239.4 154.8 238.4 155.5C237.6 156.1 236.8 156.3 235.9 156.3ZM235.9 148.8C235.2 148.8 234.6 149 234 149.4C233.3 149.9 232.8 150.6 232.7 151.5C232.6 152.4 232.7 153.2 233.2 153.9C233.7 154.6 234.4 155.1 235.3 155.2C236.2 155.3 237 155.2 237.7 154.7C238.4 154.2 238.9 153.5 239 152.6C239.3 150.8 238.1 149.1 236.4 148.8C236.3 148.8 236.1 148.8 235.9 148.8Z" fill="#415B91"/>
<path d="M263.8 37.4004H207.3V43.6004H263.8V37.4004Z" fill="#B6D0FB"/>
<path d="M312.9 166H294.1V0.0996094H312.9V166ZM296 164.1H311.1V1.89961H296V164.1Z" fill="#415B91"/>
<path d="M312.699 18.3H294.399V0H312.699V18.3ZM296.299 16.4H310.799V1.9H296.299V16.4Z" fill="#415B91"/>
<path d="M295.981 0.237569L294.638 1.58105L311.042 17.9858L312.386 16.6423L295.981 0.237569Z" fill="#415B91"/>
<path d="M311.043 0.310116L294.639 16.7148L295.982 18.0583L312.387 1.65361L311.043 0.310116Z" fill="#415B91"/>
<path d="M312.699 34.7004H294.399V16.4004H312.699V34.7004ZM296.299 32.8004H310.799V18.3004H296.299V32.8004Z" fill="#415B91"/>
<path d="M296.043 16.7132L294.699 18.0566L311.104 34.4614L312.447 33.1179L296.043 16.7132Z" fill="#415B91"/>
<path d="M311.033 16.7144L294.628 33.1191L295.971 34.4626L312.376 18.0579L311.033 16.7144Z" fill="#415B91"/>
<path d="M312.699 51.0998H294.399V32.7998H312.699V51.0998ZM296.299 49.1998H310.799V34.6998H296.299V49.1998Z" fill="#415B91"/>
<path d="M296.031 33.1155L294.688 34.459L311.092 50.8637L312.436 49.5202L296.031 33.1155Z" fill="#415B91"/>
<path d="M311.03 33.1275L294.625 49.5322L295.968 50.8757L312.373 34.471L311.03 33.1275Z" fill="#415B91"/>
<path d="M312.699 67.5002H294.399V49.2002H312.699V67.5002ZM296.299 65.7002H310.799V51.1002H296.299V65.7002Z" fill="#415B91"/>
<path d="M296.021 49.5208L294.678 50.8643L311.082 67.269L312.426 65.9255L296.021 49.5208Z" fill="#415B91"/>
<path d="M311.012 49.523L294.607 65.9277L295.951 67.2712L312.356 50.8665L311.012 49.523Z" fill="#415B91"/>
<path d="M312.699 84.0002H294.399V65.7002H312.699V84.0002ZM296.299 82.1002H310.799V67.5002H296.299V82.1002Z" fill="#415B91"/>
<path d="M296.011 65.9251L294.668 67.2686L311.073 83.6733L312.416 82.3298L296.011 65.9251Z" fill="#415B91"/>
<path d="M311.08 66.0074L294.675 82.4121L296.018 83.7556L312.423 67.3509L311.08 66.0074Z" fill="#415B91"/>
<path d="M312.699 100.4H294.399V82.0996H312.699V100.4ZM296.299 98.4996H310.799V83.9996H296.299V98.4996Z" fill="#415B91"/>
<path d="M296.001 82.3274L294.657 83.6709L311.062 100.076L312.405 98.7321L296.001 82.3274Z" fill="#415B91"/>
<path d="M311.069 82.4117L294.664 98.8164L296.008 100.16L312.412 83.7552L311.069 82.4117Z" fill="#415B91"/>
<path d="M312.699 116.8H294.399V98.5H312.699V116.8ZM296.299 114.9H310.799V100.4H296.299V114.9Z" fill="#415B91"/>
<path d="M295.992 98.7337L294.648 100.077L311.053 116.482L312.397 115.138L295.992 98.7337Z" fill="#415B91"/>
<path d="M311.058 98.816L294.653 115.221L295.997 116.564L312.402 100.159L311.058 98.816Z" fill="#415B91"/>
<path d="M312.699 133.2H294.399V114.9H312.699V133.2ZM296.299 131.3H310.799V116.8H296.299V131.3Z" fill="#415B91"/>
<path d="M295.981 115.137L294.638 116.48L311.042 132.885L312.386 131.542L295.981 115.137Z" fill="#415B91"/>
<path d="M311.047 115.221L294.643 131.626L295.986 132.969L312.391 116.565L311.047 115.221Z" fill="#415B91"/>
<path d="M312.699 149.6H294.399V131.3H312.699V149.6ZM296.299 147.7H310.799V133.2H296.299V147.7Z" fill="#415B91"/>
<path d="M296.042 131.613L294.698 132.956L311.103 149.361L312.446 148.017L296.042 131.613Z" fill="#415B91"/>
<path d="M311.037 131.626L294.632 148.03L295.975 149.374L312.38 132.969L311.037 131.626Z" fill="#415B91"/>
<path d="M312.699 166H294.399V147.7H312.699V166ZM296.299 164.1H310.799V149.6H296.299V164.1Z" fill="#415B91"/>
<path d="M296.031 148.014L294.688 149.357L311.092 165.762L312.436 164.419L296.031 148.014Z" fill="#415B91"/>
<path d="M311.018 148.003L294.611 164.405L295.955 165.749L312.362 149.347L311.018 148.003Z" fill="#415B91"/>
<path d="M345.4 34.5002H327.1V16.2002H345.4V34.5002ZM328.9 32.6002H343.4V18.0002H328.9V32.6002Z" fill="#415B91"/>
<path d="M343.764 16.4836L327.361 32.8906L328.705 34.2339L345.107 17.8269L343.764 16.4836Z" fill="#415B91"/>
<path d="M328.693 16.4016L327.35 17.7451L343.754 34.1498L345.098 32.8063L328.693 16.4016Z" fill="#415B91"/>
<path d="M328.9 34.5002H310.6V16.2002H328.9V34.5002ZM312.5 32.6002H327V18.0002H312.5V32.6002Z" fill="#415B91"/>
<path d="M327.359 16.4729L310.957 32.8799L312.301 34.2232L328.703 17.8162L327.359 16.4729Z" fill="#415B91"/>
<path d="M312.289 16.3899L310.945 17.7334L327.35 34.1381L328.694 32.7946L312.289 16.3899Z" fill="#415B91"/>
<path d="M312.5 34.5002H294.2V16.2002H312.5V34.5002ZM296.1 32.6002H310.6V18.0002H296.1V32.6002Z" fill="#415B91"/>
<path d="M296.1 34.5002H277.8V16.2002H296.1V34.5002ZM279.7 32.6002H294.2V18.0002H279.7V32.6002Z" fill="#415B91"/>
<path d="M294.543 16.4429L278.139 32.8477L279.482 34.1911L295.887 17.7864L294.543 16.4429Z" fill="#415B91"/>
<path d="M279.41 16.4407L278.066 17.7842L294.471 34.1889L295.815 32.8454L279.41 16.4407Z" fill="#415B91"/>
<path d="M279.699 34.5002H261.399V16.2002H279.699V34.5002ZM263.299 32.6002H277.799V18.0002H263.299V32.6002Z" fill="#415B91"/>
<path d="M278.068 16.5025L261.663 32.9072L263.007 34.2507L279.411 17.846L278.068 16.5025Z" fill="#415B91"/>
<path d="M263.008 16.4319L261.664 17.7754L278.069 34.1801L279.412 32.8366L263.008 16.4319Z" fill="#415B91"/>
<path d="M263.3 34.5002H245V16.2002H263.3V34.5002ZM246.9 32.6002H261.4V18.0002H246.9V32.6002Z" fill="#415B91"/>
<path d="M245.9 34.5H229.5C229.1 34.5 228.8 34.3 228.6 33.9C228.5 33.5 228.5 33.1 228.8 32.9L245.2 16.5L246.5 17.8L231.7 32.6H245.5L261.6 16.5L262.9 17.8L246.5 34.2C246.4 34.4 246.2 34.5 245.9 34.5Z" fill="#415B91"/>
<path d="M246.602 16.4202L245.259 17.7637L261.664 34.1684L263.007 32.8249L246.602 16.4202Z" fill="#415B91"/>
<path d="M313 184.3H294.2V166H313V184.3ZM296.1 182.4H311V167.9H296.1V182.4Z" fill="#415B91"/>
<path d="M311.3 184L294.4 167.6L295.8 166.3L312.7 182.7L311.3 184Z" fill="#415B91"/>
<path d="M295.8 184L294.4 182.7L311.3 166.3L312.7 167.6L295.8 184Z" fill="#415B91"/>
<path d="M313 250H294.2V231.7H313V250ZM296.1 248.1H311V233.6H296.1V248.1Z" fill="#415B91"/>
<path d="M311.3 249.7L294.4 233.3L295.8 231.9L312.7 248.3L311.3 249.7Z" fill="#415B91"/>
<path d="M295.8 249.7L294.4 248.3L311.3 231.9L312.7 233.3L295.8 249.7Z" fill="#415B91"/>
<path d="M313 199.2H294.2V180.9H313V199.2ZM296.1 197.3H311V182.8H296.1V197.3Z" fill="#415B91"/>
<path d="M311.3 198.901L294.4 182.501L295.8 181.101L312.7 197.601L311.3 198.901Z" fill="#415B91"/>
<path d="M295.8 198.901L294.4 197.601L311.3 181.101L312.7 182.501L295.8 198.901Z" fill="#415B91"/>
<path d="M313 215.6H294.2V197.3H313V215.6ZM296.1 213.7H311V199.2H296.1V213.7Z" fill="#415B91"/>
<path d="M311.3 215.3L294.4 198.9L295.8 197.6L312.7 214L311.3 215.3Z" fill="#415B91"/>
<path d="M295.8 215.3L294.4 214L311.3 197.6L312.7 198.9L295.8 215.3Z" fill="#415B91"/>
<path d="M313 232H294.2V213.7H313V232ZM296.1 230.1H311V215.6H296.1V230.1Z" fill="#415B91"/>
<path d="M311.3 231.7L294.4 215.3L295.8 214L312.7 230.4L311.3 231.7Z" fill="#415B91"/>
<path d="M295.8 231.7L294.4 230.4L311.3 214L312.7 215.3L295.8 231.7Z" fill="#415B91"/>
<path d="M103.1 99.6003C105.1 99.6003 105.1 96.5003 103.1 96.5003C101.1 96.4003 101.1 99.6003 103.1 99.6003Z" fill="#405B91"/>
<path d="M271.8 67.1003C273.8 67.1003 273.8 64.0003 271.8 64.0003C269.8 63.9003 269.8 67.1003 271.8 67.1003Z" fill="#405B91"/>
<path d="M341.6 178.4C341.8 178.4 342.1 178.4 342.3 178.4C343.1 178.4 343.9 177.7 343.9 176.8C343.9 176 343.2 175.2 342.3 175.2C342.1 175.2 341.8 175.2 341.6 175.2C340.8 175.2 340 175.9 340 176.8C340.1 177.7 340.8 178.4 341.6 178.4Z" fill="#405B91"/>
<path d="M41.5996 201.2C43.5996 201.2 43.5996 198.1 41.5996 198.1C39.5996 198.1 39.5996 201.2 41.5996 201.2Z" fill="#405B91"/>
<path d="M190.2 51.8002C192.2 51.8002 192.2 48.7002 190.2 48.7002C188.2 48.7002 188.2 51.8002 190.2 51.8002Z" fill="#405B91"/>
</g>
<defs>
<clipPath id="clip0_13263_179696">
<rect width="400.5" height="252" fill="white"/>
</clipPath>
</defs>
</svg>
